<?xml version="1.0" standalone="no"?>
<!DOCTYPE svg PUBLIC "-//W3C//DTD SVG 20010904//EN"
 "http://www.w3.org/TR/2001/REC-SVG-20010904/DTD/svg10.dtd">
<svg version="1.0" xmlns="http://www.w3.org/2000/svg"
 width="400.000000pt" height="400.000000pt" viewBox="0 0 400.000000 400.000000"
 preserveAspectRatio="xMidYMid meet">

<g transform="translate(0.000000,400.000000) scale(0.100000,-0.100000)"
fill="#000000" stroke="none">
<path d="M1310 2972 c0 -4 153 -160 340 -347 187 -187 340 -343 340 -347 0 -5
-155 -8 -345 -8 l-345 0 0 -353 0 -352 350 -350 350 -350 0 353 0 352 352 0
353 0 -350 350 -350 350 348 0 347 0 0 355 0 355 -695 0 c-382 0 -695 -3 -695
-8z"/>
</g>
</svg>
