<?xml version="1.0" standalone="no"?>
<!DOCTYPE svg PUBLIC "-//W3C//DTD SVG 20010904//EN"
 "http://www.w3.org/TR/2001/REC-SVG-20010904/DTD/svg10.dtd">
<svg version="1.0" xmlns="http://www.w3.org/2000/svg"
 width="474.000000pt" height="428.000000pt" viewBox="0 0 474.000000 428.000000"
 preserveAspectRatio="xMidYMid meet">

<g transform="translate(0.000000,428.000000) scale(0.100000,-0.100000)"
fill="#000000" stroke="none">
<path d="M1710 3023 c-360 -642 -678 -1208 -706 -1258 -28 -49 -228 -404 -443
-788 -216 -384 -401 -712 -411 -730 -11 -18 -20 -35 -20 -39 0 -5 1008 -8
2241 -8 1881 0 2240 2 2236 14 -3 7 -86 157 -185 332 -98 175 -190 339 -204
364 -63 114 -677 1206 -727 1295 -32 55 -295 524 -586 1043 -291 518 -532 942
-535 942 -3 0 -300 -525 -660 -1167z"/>
</g>
</svg>
